<svg viewBox="0 0 564.7936 227.19679999999997" xml:space="preserve" version="1.1" xmlns:xlink="http://www.w3.org/1999/xlink" xmlns="http://www.w3.org/2000/svg" style="max-height: 500px" width="564.7936" height="227.19679999999997">
        <desc>Created By Mental</desc>
        <defs>
          
          
          
        </defs><g transform=""><g id="undefined" style="" transform="">
      
      <g id="Layer 2" transform="matrix(1 0 0 1 221.67 80.69)">
      
          
          
          
          
          <g transform="translate(-221.16946573270292, 22.91911561996921) scale(0.09167646247987686, -0.09167646247987686)"><path fill="#fdffc2" d="M1726 -702C1726 -690 1728 -675 1711 -675C1702 -675 1695 -682 1695 -690C1695 -923 1440 -1160 1231 -1228C1156 -1252 1076 -1264 997 -1264C663 -1264 316 -1088 316 -713C316 -486 434 -248 572 -72C608 -25 648 18 687 63C749 134 807 209 868 281C873 281 888 281 908 281C950 281 1010 283 1010 298C1010 309 1007 317 994 317C961 317 928 313 895 313C946 373 999 432 1051 492C1095 543 1144 593 1186 646C1190 650 1190 653 1190 658C1190 665 1182 673 1175 673C1170 673 1167 670 1164 667C1120 621 1079 572 1038 524C976 454 913 384 854 312C789 312 723 311 658 311L590 311C639 361 871 616 871 670C871 685 855 695 842 695C827 695 806 687 792 681C760 666 549 549 549 525C549 517 557 509 566 509C571 509 612 539 620 545C677 582 734 616 794 648C795 647 796 648 795 649C808 653 820 659 834 663C835 663 836 663 837 663C823 612 596 362 547 310C398 310 162 256 82 117C70 96 61 70 61 45C61 5 94 -43 138 -43C229 -43 418 138 485 203C509 227 539 253 560 280C582 281 605 281 627 281C671 281 716 280 760 280C783 280 805 280 827 281C775 219 725 156 673 95C635 50 595 6 558 -40C410 -223 286 -472 286 -711C286 -783 296 -854 323 -921C426 -1180 737 -1295 996 -1295C1103 -1295 1202 -1276 1300 -1234C1488 -1153 1726 -919 1726 -702ZM516 278C430 192 337 97 235 30C228 25 182 0 182 0C158 -10 153 -11 127 -11C121 -8 96 14 98 21C96 26 96 32 93 36C93 38 92 41 92 43L92 53L93 55C93 76 106 99 118 115C198 227 386 271 516 278Z" opacity="1"/></g><g transform="translate(-155.25408920967146, 22.91911561996921) scale(0.09167646247987686, -0.09167646247987686)"><path fill="#fdffc2" d="M502 240C502 247 495 257 487 257C476 257 470 247 463 240C447 261 438 267 412 267C376 267 347 250 317 233C283 213 254 178 224 153C172 110 115 69 55 39C53 38 51 38 50 36C38 31 -8 21 -8 6C-8 -3 -1 -10 8 -10C53 -10 161 64 199 94L198 93C192 77 184 60 184 43C184 23 193 3 216 3C250 3 298 40 324 60C320 49 315 38 315 25C315 6 329 -10 349 -10C363 -10 394 -10 394 9C394 17 387 24 378 24C372 24 365 21 359 21C357 21 352 22 349 22C348 22 348 22 347 22L346 23C339 71 502 228 502 240ZM439 214C425 198 411 182 397 165C373 136 248 34 220 34L216 34L215 35C215 46 217 58 221 68L222 68C237 108 277 165 312 191L312 192C326 204 346 214 363 223C369 225 401 236 401 236C405 236 409 237 413 237L417 237C419 236 423 235 425 235C426 234 434 230 433 228C435 225 439 219 439 215Z" opacity="1"/></g><g transform="translate(-119.40859238003961, 22.91911561996921) scale(0.09167646247987686, -0.09167646247987686)"><path fill="#fdffc2" d="M289 22C279 22 274 22 264 24L263 24L263 25L265 30C261 45 400 169 400 234C400 250 389 262 373 262C366 262 359 261 353 259C359 267 364 277 364 287C364 298 355 307 344 307C323 307 268 259 268 236C268 230 271 224 275 220C224 174 170 131 120 85C100 67 75 52 52 39L51 38L49 38C33 28 -18 25 -18 6C-18 -1 -10 -9 -3 -9C29 -9 72 13 99 31C155 68 268 165 314 215C332 218 350 225 367 231L369 231C348 157 232 71 232 23C232 -5 259 -10 281 -10C292 -10 305 -9 305 5C305 15 299 22 289 22Z" opacity="1"/></g><g transform="translate(-93.46415349823445, 22.91911561996921) scale(0.09167646247987686, -0.09167646247987686)"><path fill="#fdffc2" d="M384 255C384 270 373 290 356 290C348 290 155 133 124 107C68 60 62 49 -4 27C-16 22 -35 22 -35 6C-35 -2 -28 -10 -20 -10C16 -10 108 46 131 73C127 38 152 -6 191 -6C201 -6 211 -2 220 2C232 -6 247 -10 262 -10C273 -10 289 -10 289 5C289 15 283 22 273 22C269 22 263 21 258 21C255 21 251 21 249 23C287 57 384 213 384 255ZM352 250C353 247 344 232 344 231C314 171 275 86 224 42L216 57L216 58C207 73 198 105 184 116C240 161 295 206 352 250ZM189 26C182 26 173 36 170 37L170 38C167 41 162 52 162 56L162 72C162 74 165 83 166 86L168 88C176 68 186 45 197 26Z" opacity="1"/></g><g transform="translate(-68.16144985378844, 22.91911561996921) scale(0.09167646247987686, -0.09167646247987686)"><path fill="#fdffc2" d="M1640 831C1640 983 1494 1081 1353 1081C1151 1081 933 930 796 788C680 839 572 881 443 881C416 881 388 878 362 874C267 858 165 779 165 676C165 573 256 509 352 509C439 509 530 547 612 566C568 508 519 454 473 398C461 383 448 364 434 351C373 295 306 243 242 190C175 135 105 74 27 35C21 32 -22 19 -24 17C-26 14 -28 10 -28 6C-28 -3 -21 -9 -12 -9C65 -9 267 171 322 216C294 185 160 28 160 16C160 4 171 -6 183 -6C198 -6 289 85 315 108C371 156 426 201 492 235C467 186 341 93 341 34C341 -6 376 -9 407 -9C416 -9 422 -2 422 7C422 26 395 22 383 23L379 25C375 24 374 27 372 29C371 41 379 53 386 63C388 65 389 68 391 70L391 71C416 105 530 213 530 246C530 260 514 268 502 268C448 268 323 155 282 120C409 272 534 425 661 577C694 584 731 590 765 590C801 590 894 566 911 538C917 534 921 524 924 522C925 518 926 513 927 509C925 506 926 501 925 497C925 496 923 494 923 493C921 488 918 484 915 480C915 478 913 475 913 474C913 466 920 457 929 457C947 457 958 495 958 509C958 584 824 620 765 620C739 620 714 617 688 613C725 660 764 707 805 750C952 681 1131 574 1295 574C1439 574 1640 664 1640 831ZM1609 828C1609 709 1469 627 1365 610C1342 606 1318 604 1294 604C1142 604 964 710 826 774C854 805 886 832 919 858C1043 956 1192 1050 1355 1050C1480 1050 1609 962 1609 828ZM775 764C750 733 722 703 696 672C678 651 662 624 643 605C553 584 440 541 350 541C272 541 196 591 196 676C196 798 338 850 439 850C558 850 667 811 775 764Z" opacity="1"/></g><g transform="translate(5.363073055072789, 22.91911561996921) scale(0.09167646247987686, -0.09167646247987686)"><path fill="#fdffc2" d="M3605 -649C3605 -607 3564 -529 3537 -496C3431 -362 3252 -330 3091 -330C2895 -330 2682 -379 2503 -456C2082 -637 1621 -947 1155 -947C1059 -947 963 -934 872 -903C641 -825 470 -611 470 -364C470 -141 615 47 770 194C838 259 904 326 972 390C1020 435 1077 483 1113 539C1129 563 1142 592 1142 623C1142 650 1130 676 1098 676C1013 676 735 399 670 329C614 268 559 207 503 147C597 267 703 377 790 503C802 520 818 550 818 571C818 595 806 607 783 607C709 607 481 397 419 343C459 393 576 542 576 600C576 626 560 642 534 642C444 642 225 403 164 332C155 322 118 283 118 272C118 264 126 257 134 257C138 257 142 259 145 262C164 282 182 304 200 325C273 409 373 516 466 579C477 586 495 594 503 602L505 602C518 608 528 610 541 610C542 609 544 608 545 607C546 599 543 586 540 579C541 577 528 553 527 551C455 416 327 280 228 165L226 164C205 139 82 11 82 -1C82 -9 90 -17 98 -17C107 -17 143 25 150 33C184 70 217 107 250 144C298 197 378 265 433 315C527 401 624 486 732 554C747 563 771 570 780 576L787 576L787 571C781 553 775 539 765 522C738 478 705 437 672 397C630 345 381 65 381 24C381 15 387 5 397 5C406 5 417 12 423 18C484 73 540 141 596 202C659 272 1005 644 1099 644C1102 644 1105 644 1107 643C1111 636 1112 628 1112 620C1112 550 985 446 936 398C722 186 439 -34 439 -365C439 -474 468 -575 527 -666C672 -891 886 -978 1148 -978C1680 -978 2128 -626 2610 -448C2764 -391 2933 -361 3097 -361C3227 -361 3371 -385 3473 -472C3532 -522 3558 -580 3575 -654C3577 -661 3579 -665 3587 -665C3595 -665 3605 -658 3605 -649Z" opacity="1"/></g><g transform="translate(73.84539052754081, 22.91911561996921) scale(0.09167646247987686, -0.09167646247987686)"><path fill="#fdffc2" d="M458 -61C458 -52 451 -44 442 -44C423 -44 424 -83 418 -97C418 -98 412 -110 412 -111C394 -143 385 -148 357 -168L355 -168C347 -172 338 -174 330 -177L327 -177L326 -178C319 -178 313 -179 306 -179C296 -179 284 -175 275 -172L274 -172C269 -169 261 -165 256 -163C255 -162 253 -160 251 -159L250 -159C234 -145 221 -132 212 -112L212 -111C205 -96 201 -80 201 -63C201 93 372 187 372 239C372 254 360 263 346 263C336 263 114 89 111 87L95 74C93 72 90 69 88 67L87 67C84 63 47 39 44 40C32 33 -25 23 -25 9C-25 2 -21 -9 -13 -9C15 -9 64 14 88 29C96 34 115 52 119 53C121 59 294 189 315 204C246 129 169 49 169 -61C169 -135 231 -210 308 -210C367 -210 419 -174 442 -120C448 -106 458 -76 458 -61ZM509 411C509 433 490 444 470 444C445 444 407 415 407 388C407 366 425 355 445 355C471 355 509 384 509 411ZM441 386L439 387L438 387L438 389C443 399 450 402 458 409C460 408 466 412 469 412L471 413C473 412 476 412 478 412L478 411C477 409 477 407 475 406L474 403C470 398 458 392 456 389C453 388 450 387 447 386Z" opacity="1"/></g><g transform="translate(98.50635893462771, 22.91911561996921) scale(0.09167646247987686, -0.09167646247987686)"><path fill="#fdffc2" d="M384 255C384 270 373 290 356 290C348 290 155 133 124 107C68 60 62 49 -4 27C-16 22 -35 22 -35 6C-35 -2 -28 -10 -20 -10C16 -10 108 46 131 73C127 38 152 -6 191 -6C201 -6 211 -2 220 2C232 -6 247 -10 262 -10C273 -10 289 -10 289 5C289 15 283 22 273 22C269 22 263 21 258 21C255 21 251 21 249 23C287 57 384 213 384 255ZM352 250C353 247 344 232 344 231C314 171 275 86 224 42L216 57L216 58C207 73 198 105 184 116C240 161 295 206 352 250ZM189 26C182 26 173 36 170 37L170 38C167 41 162 52 162 56L162 72C162 74 165 83 166 86L168 88C176 68 186 45 197 26Z" opacity="1"/></g><g transform="translate(123.80906257907372, 22.91911561996921) scale(0.09167646247987686, -0.09167646247987686)"><path fill="#fdffc2" d="M685 593C685 600 676 609 668 609C664 609 660 606 657 603C609 551 564 491 519 437C496 410 472 376 447 351C406 311 356 274 312 237C293 221 274 206 255 190C192 138 125 80 53 41C43 36 -9 18 -11 17C-13 14 -15 10 -15 6C-15 -3 -8 -9 1 -9C79 -9 283 173 335 216C301 175 173 30 173 17C173 5 183 -7 195 -7C206 -7 215 3 222 11C265 62 422 194 490 228C495 230 501 232 505 235L505 234C471 176 354 98 354 27C354 -5 397 -9 420 -9C428 -9 435 -1 435 7C435 28 406 19 385 29L385 35C386 37 387 41 388 42C394 84 542 200 542 246C542 261 525 268 512 268C466 268 334 154 295 120C423 274 555 426 680 582C683 585 685 589 685 593Z" opacity="1"/></g><g transform="translate(159.37953002126596, 22.91911561996921) scale(0.09167646247987686, -0.09167646247987686)"><path fill="#fdffc2" d="M289 22C279 22 274 22 264 24L263 24L263 25L265 30C261 45 400 169 400 234C400 250 389 262 373 262C366 262 359 261 353 259C359 267 364 277 364 287C364 298 355 307 344 307C323 307 268 259 268 236C268 230 271 224 275 220C224 174 170 131 120 85C100 67 75 52 52 39L51 38L49 38C33 28 -18 25 -18 6C-18 -1 -10 -9 -3 -9C29 -9 72 13 99 31C155 68 268 165 314 215C332 218 350 225 367 231L369 231C348 157 232 71 232 23C232 -5 259 -10 281 -10C292 -10 305 -9 305 5C305 15 299 22 289 22Z" opacity="1"/></g><g transform="translate(185.3239689030711, 22.91911561996921) scale(0.09167646247987686, -0.09167646247987686)"><path fill="#fdffc2" d="M502 240C502 247 495 257 487 257C476 257 470 247 463 240C447 261 438 267 412 267C376 267 347 250 317 233C283 213 254 178 224 153C172 110 115 69 55 39C53 38 51 38 50 36C38 31 -8 21 -8 6C-8 -3 -1 -10 8 -10C53 -10 161 64 199 94L198 93C192 77 184 60 184 43C184 23 193 3 216 3C250 3 298 40 324 60C320 49 315 38 315 25C315 6 329 -10 349 -10C363 -10 394 -10 394 9C394 17 387 24 378 24C372 24 365 21 359 21C357 21 352 22 349 22C348 22 348 22 347 22L346 23C339 71 502 228 502 240ZM439 214C425 198 411 182 397 165C373 136 248 34 220 34L216 34L215 35C215 46 217 58 221 68L222 68C237 108 277 165 312 191L312 192C326 204 346 214 363 223C369 225 401 236 401 236C405 236 409 237 413 237L417 237C419 236 423 235 425 235C426 234 434 230 433 228C435 225 439 219 439 215Z" opacity="1"/></g>
      </g>
      
      <g id="Layer 1" transform="matrix(1 0 0 1 165.34 NaN)">
      
          
          
          
          
          
      </g></g></g></svg>